<svg width="24" height="24" viewBox="0 0 24 24" fill="none" xmlns="http://www.w3.org/2000/svg">
  <rect width="24" height="24" rx="12" fill="#222"/>
  <path d="M8.09975 6.20755C7.98222 6.23951 7.86585 6.27244 7.7505 6.30657C4.79131 7.18201 4.82529 11.4148 7.91123 11.4015C8.40622 11.3993 8.94643 11.3598 9.54767 11.2884C9.72435 11.2675 9.92984 11.2226 10.1006 11.1728C12.758 10.3978 12.9498 6.92839 10.2575 6.28503C10.0914 6.24531 9.92807 6.2086 9.76723 6.1738C9.2163 6.05458 8.64367 6.05963 8.09975 6.20755Z" fill="white"/>
  <path d="M8.97123 9.57041C7.63842 10.3929 6.22849 8.37332 7.48744 7.44174V7.44174C7.523 7.41543 7.5597 7.39087 7.59739 7.36802C8.8684 6.59748 10.2052 8.66165 9.01038 9.54576V9.54576C8.9974 9.5541 8.98434 9.56231 8.97123 9.57041Z" fill="#222"/>
  <path d="M11.3661 9.53891C11.2486 9.57087 11.1322 9.6038 11.0169 9.63793C8.05767 10.5134 8.09165 14.7461 11.1776 14.7328C11.6726 14.7307 12.2128 14.6911 12.814 14.6198C12.9907 14.5988 13.1962 14.5539 13.367 14.5041C16.0243 13.7291 16.2161 10.2597 13.5239 9.61639C13.3577 9.57667 13.1944 9.53996 13.0336 9.50516C12.4827 9.38594 11.91 9.39099 11.3661 9.53891Z" fill="white"/>
  <path d="M12.2388 12.9017C10.906 13.7242 9.49607 11.7046 10.755 10.773V10.773C10.7906 10.7467 10.8273 10.7222 10.865 10.6993C12.136 9.92878 13.4728 11.993 12.278 12.8771V12.8771C12.265 12.8854 12.2519 12.8936 12.2388 12.9017Z" fill="#222"/>
  <path d="M14.6981 12.806C14.5806 12.838 14.4642 12.8709 14.3489 12.905C11.3897 13.7805 11.4237 18.0132 14.5096 17.9999C15.0046 17.9978 15.5448 17.9582 16.1461 17.8869C16.3227 17.8659 16.5282 17.821 16.699 17.7712C19.3563 16.9962 19.5482 13.5268 16.8559 12.8835C16.6897 12.8438 16.5265 12.8071 16.3656 12.7722C15.8147 12.653 15.2421 12.6581 14.6981 12.806Z" fill="white"/>
  <path d="M15.5696 16.169C14.2368 16.9915 12.8269 14.972 14.0858 14.0404V14.0404C14.1214 14.0141 14.1581 13.9895 14.1958 13.9666C15.4668 13.1961 16.8036 15.2603 15.6088 16.1444V16.1444C15.5958 16.1527 15.5827 16.1609 15.5696 16.169Z" fill="#222"/>
</svg>
