<svg width="200" height="200" viewBox="0 0 200 200" fill="none" xmlns="http://www.w3.org/2000/svg">
<rect width="200" height="200" rx="100" fill="#1F1F1F"/>
<path d="M67.4979 51.7296C66.5185 51.9959 65.5487 52.2703 64.5875 52.5547C39.9276 59.8501 40.2107 95.1232 65.9269 95.0122C70.0518 94.9944 74.5536 94.6648 79.5639 94.0703C81.0362 93.8956 82.7486 93.5215 84.172 93.1064C106.316 86.6481 107.915 57.7366 85.4795 52.3752C84.0946 52.0443 82.7339 51.7384 81.3936 51.4483C76.8025 50.4548 72.0306 50.4969 67.4979 51.7296Z" fill="white"/>
<path d="M74.7598 79.7535C63.6531 86.6073 51.9037 69.7778 62.3949 62.0146V62.0146C62.6913 61.7954 62.9971 61.5907 63.3112 61.4003C73.9029 54.9791 85.0427 72.1806 75.0861 79.5481V79.5481C74.9779 79.6176 74.8691 79.6861 74.7598 79.7535Z" fill="#1F1F1F"/>
<path d="M94.7179 79.4909C93.7384 79.7572 92.7687 80.0317 91.8074 80.316C67.1476 87.6114 67.4307 122.884 93.1468 122.773C97.2718 122.756 101.774 122.426 106.784 121.832C108.256 121.657 109.969 121.283 111.392 120.868C133.536 114.409 135.135 85.4979 112.7 80.1366C111.315 79.8056 109.954 79.4997 108.614 79.2096C104.022 78.2161 99.2506 78.2583 94.7179 79.4909Z" fill="white"/>
<path d="M101.991 107.514C90.8838 114.368 79.1344 97.5384 89.6257 89.7753V89.7753C89.922 89.556 90.2278 89.3513 90.5419 89.1609C101.134 82.7398 112.273 99.9412 102.317 107.309V107.309C102.209 107.378 102.1 107.447 101.991 107.514Z" fill="#1F1F1F"/>
<path d="M122.485 106.717C121.505 106.983 120.536 107.257 119.574 107.542C94.9144 114.837 95.1976 150.11 120.914 149.999C125.039 149.981 129.54 149.652 134.551 149.057C136.023 148.883 137.735 148.508 139.159 148.093C161.303 141.635 162.901 112.724 140.466 107.362C139.081 107.031 137.721 106.725 136.38 106.435C131.789 105.442 127.017 105.484 122.485 106.717Z" fill="white"/>
<path d="M129.747 134.742C118.64 141.596 106.89 124.766 117.382 117.003V117.003C117.678 116.784 117.984 116.579 118.298 116.389C128.89 109.968 140.03 127.169 130.073 134.537V134.537C129.965 134.606 129.856 134.675 129.747 134.742Z" fill="#1F1F1F"/>
</svg>
