<svg width="102" height="117" viewBox="0 0 102 117" fill="none" xmlns="http://www.w3.org/2000/svg">
<path d="M50.8681 1.32517C60.9799 0.278765 69.0449 0.742571 79.3743 6.16501C89.2793 11.3646 99.5034 20.32 101.136 32.5669C102.087 39.7014 100.169 46.5271 98.2496 52.6509C91.615 73.816 85.7637 84.854 75.0531 99.3093L74.988 99.3972L74.9169 99.4803C66.7989 108.97 60.3563 113.346 51.2592 115.758C44.7164 117.493 37.9862 116.627 31.9429 114.774L28.4126 113.691C12.0727 108.68 0.917244 93.5911 0.917244 76.5C0.917244 76.231 0.909601 75.8396 0.901139 75.4064C0.887764 74.7215 0.872345 73.932 0.881847 73.3557C0.888919 72.9268 0.901174 72.4317 0.917545 71.887C1.06912 66.8439 2.49163 59.6373 4.37189 52.7703C6.25461 45.8943 8.69867 38.9863 11.0505 34.5605C11.7849 33.1786 12.5357 31.7759 13.2903 30.3795C17.9918 21.6792 28.3721 18.1507 37.4702 21.65L40.2766 22.7294L58.8848 27.9397C60.5468 28.405 61.5169 30.1295 61.0515 31.7915C60.5862 33.4535 58.8616 34.4235 57.1996 33.9582L38.3079 28.6685L35.2266 27.4834C28.9287 25.0611 21.9295 27.539 18.7889 33.3508C18.042 34.7328 17.2981 36.1226 16.5697 37.4934C14.5349 41.3224 12.2349 47.7195 10.4 54.4209C8.56265 61.1312 7.29399 67.7742 7.16472 72.0748C7.14889 72.6016 7.13746 73.0668 7.131 73.4587C7.12122 74.0516 7.13243 74.4958 7.14489 74.9896C7.1556 75.4144 7.16724 75.8758 7.16724 76.5C7.16724 90.8451 16.5304 103.51 30.2451 107.716L33.7753 108.798C39.1693 110.453 44.6366 111.048 49.6572 109.717C57.1886 107.72 62.5976 104.249 70.0968 95.5002C80.329 81.6781 85.8623 71.2728 92.2857 50.7814C94.2139 44.6305 95.6897 39.0092 94.9409 33.3928C93.7119 24.1743 85.7383 16.5646 76.4693 11.6989C67.5156 6.99859 60.764 6.57266 51.3678 7.55692L51.0422 4.44893V7.57393C46.664 7.57393 44.6765 13.0439 48.0336 15.8544L53.0483 20.0528C54.3716 21.1607 54.5463 23.1316 53.4384 24.455C52.3304 25.7783 50.3595 25.953 49.0362 24.845L44.0215 20.6467C36.2323 14.1255 40.773 1.46923 50.8681 1.32517Z" fill="#34281E"/>
<path fill-rule="evenodd" clip-rule="evenodd" d="M30.4864 79.4341L30.5662 80.7508C30.8508 85.4469 33.3627 89.7243 37.3254 92.2604C42.8967 95.826 50.4719 95.3729 55.184 90.267C62.6969 82.1261 67.5335 73.9863 73.9558 61.1216C75.6033 57.8214 71.8544 54.3183 68.6628 56.4092C67.0364 57.4748 65.6295 58.443 64.3055 59.3542C59.4902 62.6682 55.7711 65.2278 46.5707 68.9706L36.2698 71.5459L36.1615 69.7599C36.0571 68.0372 34.5759 66.7253 32.8532 66.8297C31.1305 66.9341 29.8186 68.4153 29.923 70.138L30.1017 73.0879L18.7843 75.9172C17.11 76.3358 16.092 78.0325 16.5105 79.7069C16.9291 81.3812 18.6258 82.3992 20.3002 81.9806L30.4864 79.4341ZM63.7016 67.2957C60.0721 69.6289 55.8547 71.9527 48.7157 74.8452L48.5127 74.9275L36.6544 77.8921L36.8047 80.3727C36.9685 83.0752 38.4141 85.5367 40.6945 86.9962C44 89.1117 48.1556 88.6672 50.591 86.0282C55.7034 80.4884 59.509 74.9342 63.7016 67.2957Z" fill="#34281E"/>
<path d="M27.7935 44.0336C29.1785 42.7571 31.0938 42.2265 32.9382 42.6083L35.1108 43.0581L35.2081 43.0759C37.8277 43.5546 39.7308 45.8371 39.7308 48.5C39.4979 50.954 38.6795 52.5557 35.3991 53.8605C33.5143 54.6101 31.3323 54.8711 29.5449 53.9123C29.1489 53.6999 28.7613 53.447 28.3434 53.1453C27.864 52.799 27.4554 52.365 27.1115 51.8839L26.9999 51.7278C25.2861 49.3299 25.6264 46.0312 27.7935 44.0336Z" fill="#34281E"/>
<path d="M74.5201 39.1432C75.4834 40.0643 76.8163 40.4922 78.1357 40.3038C79.8765 40.0552 81.2957 38.7813 81.7302 37.0774L81.9852 36.077C82.1848 35.2942 82.2197 34.4777 82.1127 33.677C82.0143 32.94 81.9884 32.8977 81.4175 31.9666C81.305 31.7833 81.1715 31.5655 81.0121 31.3012C78.6485 27.9859 75.8792 26.6231 72.2555 28.1011C71.1936 28.5342 70.4359 29.4611 69.9841 30.5151C69.4654 31.7252 69.3624 33.1126 70.0367 34.2434C70.8395 35.5897 71.8207 36.5811 72.2471 36.9809C72.3049 37.0351 72.3631 37.0887 72.4213 37.1422C72.5053 37.2196 72.5894 37.2969 72.6721 37.376L74.5201 39.1432Z" fill="#34281E"/>
</svg>
