<svg width="2400" height="2400" viewBox="0 0 2400 2400" fill="none" xmlns="http://www.w3.org/2000/svg">
<rect width="2400" height="2400" rx="1200" fill="#E6E6E6"/>
<path d="M700.894 712.876L808.807 649.634C864.739 633.484 897.298 637.464 955.369 643.611C1041.6 674.76 1090.41 689.537 1178.73 710.367C1099.19 639.642 1048.14 572.96 1039.03 514.114C1043.41 446.405 1088.11 384.733 1156.64 364.039L1723.81 500.562L1929.6 803.724L1706.25 1555.61L1349.88 1967.69L1038.69 2043.48L730.005 1937.57L488.078 1604.29L515.684 1121.44L700.894 712.876Z" fill="#E6E6E6"/>
<path d="M1196 358.583C1344.07 343.26 1462.16 350.052 1613.42 429.453C1758.46 505.592 1908.17 636.726 1932.08 816.06C1946.01 920.531 1917.92 1020.48 1889.81 1110.15C1792.66 1420.08 1706.98 1581.71 1550.14 1793.38L1549.19 1794.67L1548.15 1795.88C1429.28 1934.84 1334.94 1998.91 1201.73 2034.24C1105.92 2059.65 1007.37 2046.96 918.874 2019.83L867.18 2003.97C627.912 1930.6 464.561 1709.65 464.561 1459.38C464.561 1455.44 464.449 1449.71 464.326 1443.36C464.13 1433.34 463.904 1421.78 464.043 1413.34C464.147 1407.05 464.326 1399.81 464.566 1391.83C466.785 1317.98 487.615 1212.46 515.148 1111.9C542.717 1011.22 578.506 910.06 612.945 845.253C623.698 825.018 634.692 804.477 645.742 784.029C714.587 656.629 866.587 604.962 999.811 656.202L1040.91 672.008L1313.39 748.303C1337.73 755.117 1351.93 780.369 1345.12 804.706C1338.3 829.042 1313.05 843.247 1288.71 836.433L1012.08 758.975L966.958 741.621C874.737 706.152 772.246 742.435 726.258 827.538C715.322 847.776 704.429 868.127 693.762 888.2C663.967 944.268 630.287 1037.94 603.419 1136.07C576.514 1234.33 557.937 1331.6 556.044 1394.58C555.812 1402.29 555.645 1409.11 555.55 1414.84C555.407 1423.53 555.571 1430.03 555.754 1437.26C555.911 1443.48 556.081 1450.24 556.081 1459.38C556.081 1669.44 693.186 1854.89 894.013 1916.48L945.707 1932.33C1024.69 1956.55 1104.75 1965.27 1178.27 1945.78C1288.55 1916.53 1367.75 1865.71 1477.57 1737.6C1627.4 1535.2 1708.42 1382.84 1802.48 1082.78C1830.72 992.708 1852.33 910.396 1841.36 828.154C1823.37 693.167 1706.61 581.736 1570.88 510.486C1439.77 441.66 1340.9 435.423 1203.32 449.835L1198.55 404.325V450.084C1134.44 450.084 1105.33 530.182 1154.49 571.337L1227.92 632.814C1247.3 649.038 1249.86 677.898 1233.64 697.276C1217.41 716.654 1188.55 719.211 1169.17 702.988L1095.74 641.51C981.685 546.02 1048.17 360.693 1196 358.583Z" fill="#222222"/>
<path fill-rule="evenodd" clip-rule="evenodd" d="M897.546 1502.34L898.715 1521.62C902.882 1590.39 939.665 1653.02 997.691 1690.16C1079.27 1742.37 1190.2 1735.74 1259.2 1660.97C1369.21 1541.76 1440.03 1422.57 1534.07 1234.19C1558.2 1185.87 1503.3 1134.57 1456.57 1165.19C1432.75 1180.79 1412.15 1194.97 1392.76 1208.31C1322.25 1256.84 1267.79 1294.32 1133.07 1349.12L982.233 1386.83L980.648 1360.68C979.119 1335.46 957.43 1316.25 932.204 1317.77C906.978 1319.3 887.767 1340.99 889.296 1366.22L891.914 1409.41L726.191 1450.84C701.674 1456.97 686.767 1481.82 692.896 1506.34C699.026 1530.85 723.87 1545.76 748.388 1539.63L897.546 1502.34ZM1383.92 1324.6C1330.77 1358.76 1269.02 1392.79 1164.48 1435.15L1161.51 1436.35L987.865 1479.76L990.067 1516.09C992.465 1555.66 1013.63 1591.7 1047.03 1613.08C1095.43 1644.05 1156.28 1637.55 1191.94 1598.9C1266.8 1517.78 1322.53 1436.45 1383.92 1324.6Z" fill="#222222"/>
<path d="M858.115 983.969C878.394 965.277 906.441 957.507 933.448 963.098L965.262 969.684L966.687 969.944C1005.05 976.954 1032.91 1010.38 1032.91 1049.37C1029.5 1085.3 1017.52 1108.76 969.484 1127.87C941.885 1138.84 909.933 1142.66 883.76 1128.62C877.961 1125.51 872.285 1121.81 866.167 1117.39C859.146 1112.32 853.163 1105.97 848.128 1098.92L846.494 1096.63C821.398 1061.52 826.381 1013.22 858.115 983.969Z" fill="#222222"/>
<path d="M1542.34 912.358C1556.44 925.846 1575.96 932.111 1595.28 929.352C1620.77 925.711 1641.55 907.059 1647.92 882.107L1651.65 867.46C1654.57 855.997 1655.08 844.04 1653.52 832.315C1652.08 821.524 1651.7 820.904 1643.34 807.27C1641.69 804.585 1639.74 801.396 1637.4 797.526C1602.79 748.979 1562.24 729.024 1509.18 750.667C1493.63 757.009 1482.53 770.581 1475.92 786.016C1468.32 803.735 1466.81 824.05 1476.69 840.609C1488.44 860.323 1502.81 874.84 1509.05 880.694C1509.9 881.488 1510.75 882.273 1511.61 883.057C1512.84 884.19 1514.07 885.322 1515.28 886.48L1542.34 912.358Z" fill="#222222"/>
<path d="M1174.74 407.566L1219.7 403.196L1224.04 447.81C1206.5 449.371 1196.69 450.21 1179.07 452.18L1174.74 407.566Z" fill="#222222"/>
</svg>
