<svg width="160" height="160" viewBox="0 0 160 160" fill="none" xmlns="http://www.w3.org/2000/svg">
<g clip-path="url(#clip0_931_93)">
<path fill-rule="evenodd" clip-rule="evenodd" d="M83.9732 0.35905C92.1192 -0.481042 98.7076 -0.103923 107.108 4.30562C115.085 8.49343 123.513 15.7995 124.864 25.935C125.647 31.8097 124.064 37.4001 122.534 42.2813C117.218 59.2395 112.513 68.1203 103.917 79.7217L103.85 79.8131L103.776 79.8996C98.3189 86.2784 93.7536 89.8399 88.0736 91.9918C89.3226 94.7772 90.014 98.2027 90.4299 102.12C91.166 109.055 91.1119 118.532 91.0425 130.696C91.0203 134.585 90.9965 138.749 90.9965 143.192C90.9965 144.987 89.5414 146.442 87.7465 146.442C85.9516 146.442 84.4965 144.987 84.4965 143.192C84.4965 138.548 84.5206 134.261 84.5428 130.306L84.5428 130.304C84.6103 118.292 84.6606 109.348 83.9662 102.807C83.5064 98.4748 82.7521 95.6353 81.7211 93.8134L81.6923 93.7629C81.678 93.7379 81.6636 93.7131 81.6491 93.6885C78.1684 94.1462 74.693 93.8156 71.4188 93.0611C69.5459 94.2962 67.4559 95.9944 65.2055 98.1044C59.2282 103.709 52.5888 111.771 46.5205 120.257C40.4607 128.731 35.0696 137.488 31.5584 144.413C29.7934 147.894 28.5637 150.795 27.9396 152.909C27.6343 153.943 27.5192 154.64 27.5022 155.048C28.2747 156.301 28.1179 157.964 27.0319 159.05C25.7627 160.319 23.7049 160.319 22.4357 159.05C21.1268 157.741 20.9743 156.007 21.003 154.919C21.0349 153.711 21.3161 152.387 21.7057 151.068C22.493 148.402 23.9242 145.096 25.761 141.473C29.4534 134.191 35.0296 125.151 41.2333 116.476C47.4285 107.813 54.3488 99.3737 60.7596 93.3627C61.7534 92.4309 62.7464 91.5465 63.7334 90.7218C51.5639 86.0185 43.4185 74.2788 43.4185 61.0775C43.4185 60.9016 43.413 60.6101 43.4066 60.2757C43.3959 59.7082 43.3828 59.0169 43.3903 58.5569C43.3961 58.2103 43.4059 57.8118 43.4191 57.3752C43.5427 53.2627 44.6959 47.4462 46.2009 41.9499C47.7084 36.4443 49.6753 30.8723 51.5897 27.2699C52.1761 26.1663 52.7758 25.0459 53.3787 23.9303C57.3179 16.6407 66.0072 13.699 73.6035 16.6206L75.8086 17.4687L79.855 18.6017L78.0708 17.108C71.327 11.462 75.2449 0.510849 83.9732 0.35905ZM84.157 3.60745V6.85745C81.3723 6.85745 80.1082 10.3365 82.2434 12.1241L86.2433 15.4728C87.6196 16.625 87.8012 18.6748 86.649 20.0511C86.5408 20.1802 86.4248 20.2989 86.3021 20.4069L90.6167 21.615C92.3452 22.0989 93.354 23.8925 92.87 25.6209C92.3861 27.3493 90.5926 28.3582 88.8641 27.8742L73.9086 23.6867L73.7611 23.6454L73.6182 23.5904L71.2701 22.6873C66.5861 20.8858 61.413 22.7349 59.0971 27.0205C58.5024 28.1211 57.9099 29.2281 57.3295 30.3201C55.745 33.3019 53.9279 38.3425 52.4701 43.6665C51.0098 48.9998 50.0165 54.2302 49.9161 57.5705C49.9036 57.9885 49.8945 58.356 49.8895 58.6641C49.8816 59.14 49.8902 59.4643 49.9 59.8354C49.9088 60.1657 49.9185 60.5331 49.9185 61.0775C49.9185 72.1867 57.1696 81.9948 67.7906 85.2519L70.482 86.0773C73.2623 84.6458 76.4136 83.7282 79.4083 84.6141C81.0799 85.0016 82.5497 85.6555 83.8236 86.5689C89.1493 84.9859 93.1928 82.2539 98.7628 75.7601C106.861 64.8174 111.235 56.5944 116.331 40.337C117.87 35.4275 118.994 31.0899 118.421 26.794C117.49 19.8081 111.402 13.9015 104.086 10.0608C97.1175 6.40255 91.8949 6.06468 84.4956 6.83977L84.157 3.60745ZM27.5087 155.299C27.5077 155.3 27.5046 155.285 27.5024 155.249C27.5086 155.28 27.5097 155.298 27.5087 155.299ZM92.1654 55.897C89.7395 57.2943 86.7862 58.7576 82.5857 60.4595L82.3746 60.5451L82.1536 60.6003L73.4749 62.77L73.5568 64.1206C73.6728 66.0346 74.6966 67.7779 76.3117 68.8115C78.6736 70.3232 81.5738 69.9697 83.2405 68.1638C86.6833 64.4332 89.377 60.6929 92.1654 55.897ZM67.0602 64.3737L67.0687 64.5138C67.3103 68.5012 69.4432 72.1329 72.8078 74.2863C77.5262 77.3061 83.9828 76.9436 88.0172 72.572C94.0817 66.0006 97.9773 59.4332 103.111 49.1495C104.764 45.8392 101.002 42.3189 97.7966 44.4189C96.4841 45.2788 95.3542 46.0563 94.2951 46.7851L94.2941 46.7858C90.4763 49.413 87.5769 51.4082 80.3546 54.35L73.0749 56.17L73.0437 55.6555C72.9352 53.8639 71.3947 52.4995 69.6031 52.6081C67.8115 52.7167 66.4471 54.2571 66.5557 56.0487L66.6602 57.7736L58.2435 59.8778C56.5021 60.3131 55.4434 62.0777 55.8788 63.819C56.3141 65.5604 58.0786 66.6191 59.82 66.1837L67.0602 64.3737ZM64.1474 37.3597C65.3768 36.0327 67.2994 35.6055 68.9751 36.287L69.4308 36.4723C69.7522 36.603 70.0861 36.7003 70.4274 36.7627L70.9753 36.8628C72.4336 37.1293 73.658 38.1159 74.2285 39.4842C74.5048 40.1469 74.6668 40.8908 74.3784 41.5484C73.8093 42.8462 72.3959 43.8392 70.1342 44.6459C68.7284 45.1473 67.1338 45.3612 65.8186 44.6557C65.5391 44.5058 65.2653 44.3284 64.9721 44.1183C64.5934 43.8469 64.272 43.5045 64.0012 43.1255L63.7995 42.8433C62.5995 41.1644 62.7449 38.8734 64.1474 37.3597ZM104.08 28.3278C104.604 28.8287 105.29 29.1249 106.014 29.1627C107.526 29.2418 108.864 28.1903 109.145 26.7019L109.346 25.6363C109.438 25.1499 109.442 24.6512 109.376 24.1606C109.335 23.8482 109.315 23.682 109.265 23.5258C109.183 23.272 109.019 23.0447 108.546 22.2602C106.92 19.9797 104.64 18.4086 102.081 18.9765C100.902 19.2382 100.128 20.293 99.7058 21.4246C99.2865 22.5489 99.2145 23.8367 99.9972 24.7463C100.471 25.2975 101.016 25.7453 101.451 26.0607C101.48 26.0817 101.509 26.1026 101.538 26.1236C102.025 26.4763 102.514 26.8302 102.949 27.2457L104.08 28.3278Z" fill="white"/>
</g>
<defs>
<clipPath id="clip0_931_93">
<rect width="160" height="160" fill="white"/>
</clipPath>
</defs>
</svg>
