<svg width="419" height="57" viewBox="0 0 419 57" fill="none" xmlns="http://www.w3.org/2000/svg">
<path d="M14.7058 13.7908C14.7058 13.0305 14.6497 12.3714 14.6574 13.6586C14.6755 16.6897 15.2519 19.7042 15.2519 22.7587C15.2519 27.2522 14.8051 31.4421 13.9715 35.8545C13.5623 38.0203 13.5358 37.5757 14.1597 35.7925M2.80078 10.1068C2.80078 9.56667 11.628 9.88314 12.7963 9.44595C16.9348 7.89734 20.8059 5.49541 24.6513 3.34138C25.9391 2.62001 28.3435 0.811934 28.3435 3.17997M3.54806 40.6142C3.30429 41.2434 1.51566 41.7682 2.12633 42.0552C3.14209 42.5327 5.00493 41.1083 5.80163 40.6668C9.65256 38.5332 13.3426 36.7934 17.6294 35.6875M27.7514 28.4238C27.7514 31.7669 27.1556 35.4988 26.6607 38.8036C26.6137 39.1172 26.5732 39.5091 26.5242 39.9379M26.5242 39.9379C26.3642 41.3362 26.1134 43.1266 25.2513 43.8747C24.1698 44.8133 25.5961 41.7605 26.5242 39.9379ZM26.5242 39.9379C26.68 39.6319 26.8218 39.3606 26.9353 39.1486C28.2985 36.6032 32.4391 27.7699 36.3309 28.5326C38.0783 28.8751 36.9731 37.9077 36.9731 39.4773M75.2678 12.1387C75.2678 11.6929 75.1132 8.81052 74.9947 10.6866C74.7504 14.5562 74.7411 18.4375 74.7728 22.3132C74.7965 25.2291 75.122 28.2573 75.7371 31.1973M75.7371 31.1973C76.1028 32.9453 76.5709 34.6621 77.1388 36.3055C77.7374 38.0375 77.3424 34.4803 77.1765 34.027C76.8365 33.0982 76.3407 32.1263 75.7371 31.1973ZM75.7371 31.1973C72.8614 26.7714 67.5373 23.3192 64.937 30.1343C62.1436 37.4556 66.423 42.3049 74.0235 39.0777M80.1281 33.8985C80.0721 34.4259 78.9926 35.4951 79.913 35.8671C80.9035 36.2674 82.1903 36.2535 83.4012 36.0197M83.4012 36.0197C84.2826 35.8494 85.1237 35.5627 85.7812 35.2343C87.3377 34.4568 92.7496 27.5669 88.7587 26.864C86.215 26.416 83.6143 31.6049 83.4012 36.0197ZM83.4012 36.0197C83.1832 40.5388 85.4671 44.2469 92.8753 40.2674M98.926 39.7722C98.926 42.1203 99.1679 41.9089 99.3508 39.5903C99.8208 33.6331 98.8839 27.7396 98.4821 21.814C98.2662 18.6316 97.0816 12.6088 101.775 12.7414C104.164 12.8089 104.436 16.3665 104.436 18.0652M97.5801 30.9083C97.1649 30.9083 101.281 31.1933 102.219 31.3084C104.818 31.6271 108.273 32.4337 110.576 30.8662M109.84 33.8985C110.946 33.8985 112.058 34.2002 113.2 34.4158M113.2 34.4158C114.132 34.5918 115.083 34.7103 116.066 34.5605C118.357 34.2114 119.767 31.2393 117.818 29.5958C114.837 27.0828 113.321 30.2458 113.2 34.4158ZM113.2 34.4158C113.014 40.7948 116.093 49.5304 122.186 43.9098M127.043 30.6134C127.586 30.6134 127.292 38.5525 127.292 39.3638C127.292 46.2491 129.923 38.2168 131.174 35.5904C131.957 33.9464 136.961 23.5416 137.482 30.2192C137.656 32.4414 136.434 41.9727 139.79 42.109M150.41 26.2346C151.173 25.8446 150.977 25.4346 150.188 25.4346C148.011 25.4346 146.233 28.2754 145.523 30.0747C143.145 36.104 148.455 39.998 153.486 36.088M157.004 32.2558C157.952 32.2558 159.04 32.3527 160.139 32.4046M160.139 32.4046C161.708 32.4786 163.301 32.4608 164.546 31.9377C166.587 31.0798 171.007 25.7999 166.751 24.9448C162.867 24.1643 160.419 28.1445 160.158 31.6564C160.139 31.9139 160.133 32.1632 160.139 32.4046ZM160.139 32.4046C160.272 38.1128 167.131 39.3354 171.832 37.7826M199.214 27.6766C199.401 25.6812 198.481 26.4686 197.506 28.1556C195.48 31.6614 194.436 39.1376 199.858 40.3104C202.526 40.8873 204.824 37.6234 205.534 34.5091M205.534 34.5091C205.857 33.0897 205.851 31.7014 205.398 30.7219C204.782 29.3888 198.619 26.0663 198.619 28.7001C198.619 31.3876 202.431 33.523 205.534 34.5091ZM205.534 34.5091C206.615 34.8527 207.61 35.0568 208.328 35.0959C213.207 35.3622 216.812 31.7458 214.437 27.0006C212.436 23.0039 208.147 16.4621 209.676 11.7467C210.46 9.32709 214.663 9.0919 216.178 10.6964M206.903 24.1915C206.829 25.2138 207.214 24.7386 208.874 24.2628C212.525 23.2168 216.249 22.5356 219.996 21.9492M242.219 9.60156C242.219 14.7075 244.124 19.5636 244.647 24.6484C244.871 26.8293 244.9 39.6776 248.668 39.6776M247.233 35.8875C245.655 35.8046 244.541 33.8727 244.551 32.4966C244.577 28.8774 249.628 28.2124 252.297 28.2238C260.234 28.2576 252.85 39.7965 247.973 40.1194M266.277 29.5717C267.534 26.9014 263.623 28.5112 262.73 29.4507C261.295 30.9613 258.339 38.7728 263.013 37.2881C264.544 36.8016 266.906 34.5804 268.515 32.7684M268.515 32.7684C270.06 31.0289 270.911 29.6666 269.666 30.5782C268.993 31.0711 268.631 31.8565 268.515 32.7684ZM268.515 32.7684C268.145 35.6804 270.284 39.883 272.823 39.9726M284.823 16.876C285.979 16.876 286.145 24.131 286.263 24.8567C286.314 25.1723 286.36 25.6254 286.419 26.1424M286.419 26.1424C286.599 27.7401 286.9 29.947 287.851 30.5823C288.163 30.7907 288.007 28.6418 287.918 28.3979C287.531 27.3369 287.017 26.6059 286.419 26.1424ZM286.419 26.1424C283.277 23.7072 277.836 28.651 276.507 31.8795C273.869 38.2855 280.002 41.397 285.473 39.4251M318.057 26.2606C318.057 26.8188 317.169 28.2489 316.993 28.8743C316.281 31.3928 315.104 35.0146 316.027 37.6095C318.222 43.7787 323.097 32.7151 323.576 30.913C324.283 28.2531 324.204 31.2098 324.822 32.7863C325.449 34.3872 326.695 37.7588 328.972 37.2889C331.115 36.8465 332.771 31.6355 333.345 29.9437C333.562 29.3022 335.136 23.6552 334.451 26.7295M341.676 30.994C343.405 30.994 343.391 33.3501 343.414 34.6621C343.422 35.1202 343.421 37.5396 343.419 38.7448M343.419 38.7448C343.418 39.3982 343.416 39.6946 343.416 39.1276C343.416 39.0095 343.417 38.8815 343.419 38.7448ZM343.419 38.7448C343.469 34.4717 344.364 21.5725 349.959 28.9474M356.031 30.6514C358.226 30.6514 357.476 35.4402 357.476 36.9627M355.696 21.8253C354.784 21.5879 354.706 21.3564 355.654 21.3564M362.234 16.9199C364.319 23.924 367.122 31.6885 364.78 39.1358M358.84 31.2108C358.84 26.8895 369.753 29.3481 372.09 30.1018M377.316 32.6172C377.621 33.5455 377.498 34.8687 376.594 35.3851M376.339 21.1035C376.132 21.6428 375.273 22.3591 375.273 22.8977M387.469 25.6207C390.377 25.6207 385.481 38.1901 388.575 30.248C389.059 29.0065 393.159 21.1139 395.175 24.0118C397.258 27.0049 396.646 32.0229 396.646 35.4754M411.171 24.5566C407.203 24.5566 402.081 29.4604 407.139 32.4889C409.621 33.9754 411.862 32.8352 413.01 30.7075M413.01 30.7075C413.246 30.2711 413.436 29.793 413.572 29.2876C413.849 28.2613 414.192 26.6478 413.765 25.6206C413.664 25.3778 412.698 24.3027 412.407 24.9113C411.82 26.143 412.407 28.5914 412.745 29.784C412.832 30.0923 412.921 30.4001 413.01 30.7075ZM413.01 30.7075C413.986 34.0568 415.081 37.3636 415.879 40.7667C416.781 44.6163 418.489 51.4933 413.975 53.8067C411.42 55.1157 406.012 55.87 403.493 54.266C399.727 51.8671 408.463 47.0106 409.898 45.916" stroke="#34281E" stroke-width="3" stroke-linecap="round" stroke-linejoin="round"/>
</svg>
