<svg width="288" height="58" viewBox="0 0 288 58" fill="none" xmlns="http://www.w3.org/2000/svg">
<path d="M2.00044 34.9914C2.00044 37.0534 1.93497 37.4253 3.40995 35.3181C8.45485 28.1108 13.4708 20.7462 17.7002 13.0278C18.4391 11.6792 22.4395 -0.215048 20.9617 5.85671C19.3292 12.5639 17.1436 19.5257 17.6591 26.5195C18.2214 34.1478 27.1396 25.4171 28.5174 23.5804C33.3655 17.118 36.0915 10.1426 39.5072 2.94261C41.7671 -1.8211 35.5392 12.7609 34.3639 17.9008C33.4338 21.9686 31.1271 36.0957 38.3943 36.0466C39.4016 36.0398 40.6376 35.2428 41.8951 33.9954M41.8951 33.9954C46.337 29.589 51.0465 19.5615 46.8853 18.8841C42.2224 18.125 37.635 24.8071 36.4007 28.5722C34.396 34.6874 38.0034 35.9931 41.8951 33.9954ZM41.8951 33.9954C42.6818 33.5916 43.4801 33.0528 44.2459 32.3915C45.9497 30.9204 47.7287 29.1079 49.1089 27.0719M49.1089 27.0719C50.573 24.912 51.5882 22.5006 51.5882 19.9785C51.5882 17.0103 49.2373 23.055 49.1377 24.0729C49.0392 25.0787 49.0261 26.0911 49.1089 27.0719ZM49.1089 27.0719C49.4913 31.6066 51.9221 35.4656 57.4346 34.8772C64.1017 34.1656 71.0237 23.6062 74.1323 18.2197M62.5319 16.3623C60.6301 16.1325 64.8505 24.1468 65.4218 25.2476C67.1041 28.4898 72.3684 40.1988 77.6475 38.1148M109.063 8.10303C103.945 8.10303 102.35 10.901 99.8792 15.525C97.82 19.3787 90.8053 33.8514 100.281 33.8514C103.254 33.8514 107.78 29.8977 110.691 26.4272M110.691 26.4272C113.366 23.2373 114.676 20.4557 112.162 21.5275C110.087 22.4124 109.891 24.2889 110.691 26.4272ZM110.691 26.4272C112.314 30.771 118.044 36.1953 120.465 36.5811M123.187 25.4094C123.088 26.4632 122.32 27.1687 123.127 27.4849M123.127 27.4849C123.448 27.6106 124.019 27.6748 124.98 27.6748C128.182 27.6748 135.9 22.919 131.702 19.0607C127.847 15.5169 124.224 23.1676 123.127 27.4849ZM123.127 27.4849C122.908 28.3453 122.79 29.0733 122.79 29.5539C122.79 35.6762 134.428 33.2048 138.173 32.7259M146.923 22.4123C146.777 21.0089 143.835 21.0414 143.094 21.5712C143.069 21.5893 143.043 21.6077 143.018 21.6264M143.018 21.6264C139.341 24.3617 139.036 32.4711 143.448 34.54C149.127 37.2031 152.127 29.8041 151.315 25.1263C151.209 24.5133 150.554 23.8175 149.655 23.1745M143.018 21.6264C143.296 20.1775 147.308 21.4964 149.655 23.1745M143.018 21.6264C143.015 21.6441 143.012 21.6621 143.01 21.6806C142.986 21.8783 146.858 22.5765 149.655 23.1745M149.655 23.1745C150.953 23.4523 152.02 23.7084 152.356 23.8826C155.118 25.315 157.212 27.3603 158.562 30.1775C159.321 31.7627 160.307 36.9784 160.029 35.2427C159.309 30.7452 158.106 25.6552 161.045 21.6595C163.919 17.7515 167.909 17.763 169.458 22.4826M179.124 22.9471C179.124 21.3974 174.837 24.4763 174.587 24.7832C172.24 27.6746 170.922 32.6598 175.978 32.7923C177.823 32.8406 179.232 31.8424 180.225 30.42M180.225 30.42C181.408 28.7252 182.001 26.4283 182.04 24.5823C182.103 21.5806 179.595 19.4423 179.595 23.6521C179.595 25.9353 179.836 28.1878 180.225 30.42ZM180.225 30.42C181.144 35.6933 182.887 40.8528 184.219 46.0331C185.435 50.7635 187.053 56.1219 180.902 56.4044C176.005 56.6293 171.003 53.9438 169.132 49.1723C167.379 44.7015 170.419 43.9639 173.959 42.1669M193.165 22.6089C193.445 22.6089 193.408 22.6978 193.201 22.8395M193.201 22.8395C192.729 23.1634 191.375 23.7635 190.915 24.2097C189.282 25.7971 187.835 27.5677 187.362 29.8503C186.477 34.1227 191.228 36.7642 194.495 33.8408C196.797 31.7806 202.537 25.9057 197.573 24.0471C197.004 23.834 194.802 23.044 193.201 22.8395ZM193.201 22.8395C192.209 22.7128 191.447 22.811 191.447 23.4109M204.418 24.6064C206.266 24.6064 205.901 29.0832 206.003 30.351C206.451 35.8888 206.469 41.4437 206.469 46.9952C206.469 47.3099 206.173 52.2749 207.199 51.6212M205.406 27.2657C206.468 22.4734 213.498 18.8354 216.808 24.5048C219.884 29.7718 208.368 36.2958 207.799 32.4576M228.671 24.0715C221.818 24.0715 218.598 33.5754 227.148 32.5559C230.554 32.1498 232.679 28.76 232.653 25.6208C232.628 22.6501 227.942 21.2574 226.416 23.8042M239.004 22.0171C239.556 22.0171 238.827 29.8591 240.731 31.0189C244.848 33.5268 246.582 26.0107 247.957 23.5367M251.801 12.1687C253.325 6.66298 253.658 10.6281 253.658 14.3605C253.658 20.413 254.341 26.1265 256.042 31.9232M266.315 21.1451C259.86 21.1451 260.982 32.7639 266.779 33.2439C271.086 33.6005 271.425 26.5092 271.425 23.6074C271.425 21.384 267.903 17.0269 266.518 20.5401M285.862 17.9512C281.321 17.9512 276.167 20.7398 282.087 23.8685C290.461 28.2942 285.491 31.9932 277.98 31.9932" stroke="#34281E" stroke-width="3" stroke-linecap="round" stroke-linejoin="round"/>
</svg>
