<svg width="428" height="54" viewBox="0 0 428 54" fill="none" xmlns="http://www.w3.org/2000/svg">
<path d="M10.8717 15.9396C10.8717 11.2052 12.4832 25.3165 12.4832 30.0509C12.4832 33.6141 13.1512 37.9294 12.1515 41.4075C11.7335 42.8615 11.7336 41.8794 11.6312 41.0029M2.48465 6.5661C0.872063 6.5661 3.77753 9.36032 4.04989 9.67613C5.57296 11.4421 8.72989 17.1773 11.2502 17.4975C14.879 17.9587 16.1866 2.99401 19.9731 2M22.4363 29.1547C22.4363 31.0863 22.9521 31.8199 23.6748 31.8288M23.6748 31.8288C25.8319 31.8552 29.8317 25.4242 27.4556 25.1227C24.8452 24.7915 23.8511 28.9495 23.6748 31.8288ZM23.6748 31.8288C23.6247 32.6459 23.6405 33.36 23.7039 33.8393C24.4516 39.491 31.8891 36.1744 34.6148 34.6763M41.1083 23.9254C41.6017 23.9254 40.1682 24.2823 39.7911 24.6004C38.8526 25.3921 38.1163 26.6194 37.7159 27.7685C36.4801 31.3144 41.0756 31.1369 43.4008 32.1346C47.2875 33.8023 46.1943 36.315 43.3571 38.3379C42.9331 38.6402 39.0242 41.5764 40.1111 41.5764M60.226 36.7481C60.6568 40.7198 58.6955 47.4419 55.5831 50.014M85.9319 25.0713C82.3528 24.6821 86.0954 33.9809 88.0769 35.2808C91.1077 37.2691 92.7462 33.5032 93.2998 31.0628C93.5413 29.9983 93.7902 25.2375 93.8763 26.2408C94.4178 32.5521 101.819 46.2337 94.3899 50.4169C91.4215 52.0884 88.0085 51.8725 85.1878 50.014C83.9334 49.1875 79.3394 46.4719 81.388 44.6634M105.648 26.7316C105.623 26.7528 105.598 26.774 105.574 26.7953M105.574 26.7953C99.1301 32.4295 107.163 40.8884 110.342 32.1436C111.274 29.5804 112.427 23.7529 108.068 24.2272C106.877 24.3567 106.052 25.4158 105.574 26.7953ZM105.574 26.7953C104.738 29.211 104.968 32.6095 106.169 33.7215M117.45 27.0637C117.45 23.6344 115.928 34.9117 118.38 37.3095C122.343 41.1855 124.853 29.3236 125.554 27.1642M158.627 23.835C153.147 24.7478 150.113 27.3723 148.318 32.9985C146.301 39.3213 155.772 36.678 158.818 35.3408M169.149 27.1132C169.272 26.6363 169.854 25.095 169.144 24.905C166.022 24.0707 163.73 29.5807 163.111 31.7777C162.474 34.0394 163.563 41.4665 167.44 37.8815C169.487 35.9892 170.852 32.8111 171.635 29.8515M171.635 29.8515C171.867 28.9739 172.048 28.1155 172.181 27.3155C172.257 26.8536 171.964 28.244 171.635 29.8515ZM171.635 29.8515C171.338 31.3001 171.013 32.9251 170.902 33.5299C169.975 38.6099 172.503 35.6051 174.6 33.0824C175.576 31.9096 181.4 24.0895 182.112 28.7023C182.711 32.5919 181.164 39.3646 184.689 42.0486M212.267 15.8893C212.267 19.0808 216.281 39.102 213.594 39.102M217.008 34.2042C218.319 34.6298 219.508 34.8746 220.662 34.7865M220.662 34.7865C221.811 34.6987 222.925 34.2803 224.089 33.3806C225.358 32.3986 228.684 28.4427 225.178 28.2149C222.127 28.0168 220.504 31.3703 220.662 34.7865ZM220.662 34.7865C220.842 38.7039 223.363 42.704 228.757 41.5261M238.193 30.634C238.193 27.8625 235.158 34.0595 235.114 35.2733C235.009 38.1708 235.72 41.8173 239.233 42.308C242.052 42.7019 243.161 40.471 244.255 38.1972M242.786 28.0688C242.786 24.959 243.429 34.3183 244.49 37.2413C245.778 40.7868 250.475 49.7033 254.252 43.5273M258.71 37.8152C258.71 41.0957 258.261 40.1314 257.974 37.4101C257.55 33.3921 257.953 27.9513 262.686 26.6815M271.175 29.9694C271.175 31.7259 271.663 33.6264 271.812 35.3898C271.924 36.7113 271.489 40.9967 272.739 37.6863C273.728 35.0688 275.392 29.3337 278.432 28.311C280.843 27.4997 281.285 36.0239 281.788 37.5729M312.4 11.5645C312.203 21.4459 313.205 31.3432 313.205 41.2443M309.368 28.16C310.688 27.1747 317.552 24.5301 317.745 27.4202C317.998 31.2051 314.029 38.1388 320.763 38.2449C324.223 38.2994 330.018 32.3068 327.485 28.7065C325.924 26.4877 320.463 24.5115 318.323 26.9229M364.859 23.7394C364.969 23.7394 364.402 23.4136 363.666 23.9417C361.547 25.4618 359.243 27.3452 357.727 29.4834C353.681 35.1864 364.342 37.5383 367.85 37.5383M378.08 26.5456C377.301 26.5456 376.63 26.726 376.06 27.0415M376.06 27.0415C371.194 29.7366 373.749 42.2954 380.023 36.6451C381.819 35.0269 386.064 29.72 383.336 27.3402C381.929 26.1128 377.023 24.6708 376.06 27.0415ZM376.06 27.0415C375.973 27.2563 375.918 27.5024 375.901 27.7827M393.296 15.9448C394.073 15.9448 396.809 25.9265 397.13 26.8751C397.281 27.3241 397.552 28.6453 397.92 29.9529M397.92 29.9529C398.34 31.4438 398.886 32.9171 399.524 33.06C400.115 33.1924 398.404 30.3844 398.217 30.2092C398.122 30.1203 398.023 30.0349 397.92 29.9529ZM397.92 29.9529C395.099 27.6932 389.701 28.0975 389.464 32.4213C389.125 38.5757 394.346 38.7146 398.929 37.1964M406.228 30.8308C406.722 30.8308 407.485 30.6208 408.369 30.2716M408.369 30.2716C412.565 28.6142 419.503 23.8215 413.492 23.4676C410.495 23.2911 408.999 26.8813 408.369 30.2716ZM408.369 30.2716C408.043 32.0207 407.948 33.7166 407.996 34.8147C408.396 44.1051 423.571 33.2155 426.035 31.2533" stroke="#34281E" stroke-width="3" stroke-linecap="round" stroke-linejoin="round"/>
</svg>
